<svg xmlns="http://www.w3.org/2000/svg" width="26.688" height="26.688" viewBox="0 0 26.688 26.688">
  <g id="_172529_price_usd_tag_icon" data-name="172529_price_usd_tag_icon" transform="translate(-0.001 -0.001)">
    <rect id="Rectangle_2684" data-name="Rectangle 2684" width="26.688" height="26.688" transform="translate(0.001 0.001)" fill="none"/>
    <circle id="Ellipse_1" data-name="Ellipse 1" cx="1.668" cy="1.668" r="1.668" transform="translate(19.184 4.171)" fill="none" stroke="#2076a5" stroke-linecap="round" stroke-width="2"/>
    <path id="Path_1228" data-name="Path 1228" d="M26.488,4.335A1.334,1.334,0,0,0,25.153,3H17.212c-.71,0-1.39-.037-1.783.357L3.3,15.49a1.009,1.009,0,0,0,0,1.427l9.274,9.274a1.01,1.01,0,0,0,1.427,0L26.13,14.059c.394-.393.357-1.057.357-1.783C26.487,12.276,26.488,4.418,26.488,4.335Z" transform="translate(-1.398 -1.398)" fill="none" stroke="#2076a5" stroke-linecap="round" stroke-width="2"/>
    <g id="Group_483" data-name="Group 483" transform="translate(9.165 9.361)">
      <path id="Path_1229" data-name="Path 1229" d="M18.2,22.825a2.233,2.233,0,0,0,.443,1.3L20.973,21.8a8.472,8.472,0,0,1-.552-1.053,2.908,2.908,0,0,1-.238-.887,1.59,1.59,0,0,1,.132-.79,2.843,2.843,0,0,1,1.417-1.348,2.494,2.494,0,0,1,1.9,0,3.078,3.078,0,0,1,.873.54l.579-.579.483.483-.588.588a2.577,2.577,0,0,1,.606,1.658,3.554,3.554,0,0,1-.614,1.808l-.746-.746a1.652,1.652,0,0,0,.035-2l-2.159,2.159.386.666a3.432,3.432,0,0,1,.259.567,2.7,2.7,0,0,1,.153.759,2.385,2.385,0,0,1-.109.856,2.067,2.067,0,0,1-.54.847,2.681,2.681,0,0,1-.909.619,2.444,2.444,0,0,1-.974.176,2.682,2.682,0,0,1-.988-.224,3.807,3.807,0,0,1-.948-.6l-.72.72-.483-.483.72-.72a2.9,2.9,0,0,1,.07-4.038l.746.746A1.857,1.857,0,0,0,18.2,22.825Zm1.466,2.151a1.462,1.462,0,0,0,.566.153,1.275,1.275,0,0,0,.579-.105,1.832,1.832,0,0,0,.571-.4,1.327,1.327,0,0,0,.338-.514,1.3,1.3,0,0,0,.057-.531,1.906,1.906,0,0,0-.154-.566c-.084-.2-.183-.4-.294-.6l-2.2,2.2A2.556,2.556,0,0,0,19.67,24.976Zm3.12-6.421a1.354,1.354,0,0,0-1.053.465,1.319,1.319,0,0,0-.316.465,1.051,1.051,0,0,0-.062.482,1.915,1.915,0,0,0,.132.509,4.619,4.619,0,0,0,.263.544l2.054-2.054A1.764,1.764,0,0,0,22.79,18.555Z" transform="translate(-17.168 -17.536)" fill="#2076a5"/>
    </g>
  </g>
</svg>
