<svg id="_2._Door_Delivery" data-name="2. Door Delivery" xmlns="http://www.w3.org/2000/svg" width="59.086" height="63.026" viewBox="0 0 59.086 63.026">
  <path id="Path_1252" data-name="Path 1252" d="M53.239,59.086H47.33V5.909A5.909,5.909,0,0,0,41.421,0H9.909A5.909,5.909,0,0,0,4,5.909V29.543a1.97,1.97,0,0,0,3.939,0V5.909a1.97,1.97,0,0,1,1.97-1.97H41.421a1.97,1.97,0,0,1,1.97,1.97V59.086H29.6a1.97,1.97,0,1,0,0,3.939H53.239a1.97,1.97,0,1,0,0-3.939Z" transform="translate(3.878)" fill="#529ae4"/>
  <path id="Path_1253" data-name="Path 1253" d="M23.878,14a3.939,3.939,0,0,0-3.388,1.97H17.97a1.97,1.97,0,0,0,0,3.939h2.521A3.939,3.939,0,1,0,23.878,14Z" transform="translate(15.513 13.574)" fill="#529ae4"/>
  <rect id="Rectangle_2691" data-name="Rectangle 2691" width="8" height="10" rx="1" transform="translate(9.543 35.513)" fill="#529ae4"/>
  <path id="Path_1254" data-name="Path 1254" d="M7.939,29.939H5.97A1.97,1.97,0,1,1,5.97,26h1.97a1.97,1.97,0,0,1,0,3.939Z" transform="translate(3.878 25.208)" fill="#529ae4"/>
  <path id="Path_1255" data-name="Path 1255" d="M21.665,45.574H5.909A5.909,5.909,0,0,1,0,39.665V23.909A5.909,5.909,0,0,1,5.909,18H21.665a5.909,5.909,0,0,1,5.909,5.909V39.665A5.909,5.909,0,0,1,21.665,45.574ZM5.909,21.939a1.97,1.97,0,0,0-1.97,1.97V39.665a1.97,1.97,0,0,0,1.97,1.97H21.665a1.97,1.97,0,0,0,1.97-1.97V23.909a1.97,1.97,0,0,0-1.97-1.97Z" transform="translate(0 17.452)" fill="#529ae4"/>
</svg>
