<svg xmlns="http://www.w3.org/2000/svg" width="57.199" height="61.447" viewBox="0 0 57.199 61.447">
  <g id="_2044987_faucet_mosque_muslim_wudhu_wudlu_icon" data-name="2044987_faucet_mosque_muslim_wudhu_wudlu_icon" transform="translate(-177.9 -171.9)">
    <path id="Path_1239" data-name="Path 1239" d="M220.04,207.925h-3.115V203.5H202.517v4.425H186.693V203.5H179.4v16.674h7.293v-4.461h33.312a3.158,3.158,0,0,1,3.151,3.151v5.1h7.788v-5.1A10.871,10.871,0,0,0,220.04,207.925Z" transform="translate(0 -19.444)" fill="none" stroke="#529ae4" stroke-linecap="round" stroke-linejoin="round" stroke-width="3"/>
    <line id="Line_40" data-name="Line 40" y1="6.231" transform="translate(209.739 177.79)" fill="none" stroke="#529ae4" stroke-linecap="round" stroke-linejoin="round" stroke-width="3"/>
    <path id="Path_1240" data-name="Path 1240" d="M255.4,177.79H241.595a2.206,2.206,0,0,1-2.195-2.195h0a2.206,2.206,0,0,1,2.195-2.195H255.4a2.206,2.206,0,0,1,2.195,2.195h0A2.206,2.206,0,0,1,255.4,177.79Z" transform="translate(-38.759 0)" fill="none" stroke="#529ae4" stroke-linecap="round" stroke-linejoin="round" stroke-width="3"/>
    <rect id="Rectangle_2690" data-name="Rectangle 2690" width="13.311" height="6.478" transform="translate(220.288 204.518)" fill="none" stroke="#529ae4" stroke-linecap="round" stroke-linejoin="round" stroke-width="3"/>
    <path id="Path_1241" data-name="Path 1241" d="M301.522,312.7h0a4.732,4.732,0,0,1-.6-6.018l4-5.983,4,5.983a4.723,4.723,0,0,1-.6,6.018h0A4.873,4.873,0,0,1,301.522,312.7Z" transform="translate(-77.977 -82.234)" fill="none" stroke="#529ae4" stroke-linecap="round" stroke-linejoin="round" stroke-width="3"/>
    <line id="Line_41" data-name="Line 41" y2="11.576" transform="translate(186.728 186.817)" fill="none" stroke="#529ae4" stroke-linecap="round" stroke-linejoin="round" stroke-width="3"/>
  </g>
</svg>
