<svg xmlns="http://www.w3.org/2000/svg" width="70.216" height="64.312" viewBox="0 0 70.216 64.312">
  <g id="_3250107_building_construction_contructor_professional_project_icon" data-name="3250107_building_construction_contructor_professional_project_icon" transform="translate(-131.942 68.833)">
    <g id="Group_490" data-name="Group 490" transform="translate(132.442 -68.333)">
      <path id="Path_1243" data-name="Path 1243" d="M200.253-5.021H133.844a1.4,1.4,0,0,1-1.4-1.4V-66.931a1.4,1.4,0,0,1,1.4-1.4h46.69a1.4,1.4,0,0,1,1.395,1.256l1.544,14.841a1.4,1.4,0,0,1-1.249,1.54,1.4,1.4,0,0,1-1.54-1.249L179.27-65.533H135.246v41.721h63.525a1.4,1.4,0,0,1,1.4,1.273L201.65-6.556a1.393,1.393,0,0,1-.357,1.073A1.4,1.4,0,0,1,200.253-5.021Zm-65.009-2.8h63.473L197.494-21h-62.25Z" transform="translate(-132.442 68.333)" fill="#529ae4" stroke="#529ae4" stroke-width="1"/>
    </g>
    <g id="Group_491" data-name="Group 491" transform="translate(132.722 -53.421)">
      <path id="Path_1244" data-name="Path 1244" d="M198.786-41.155h-.036l-64.22-1.626a1.4,1.4,0,0,1-1.365-1.438,1.465,1.465,0,0,1,1.437-1.366l62.783,1.593V-56.274c-2.092-.135-4.167-.288-6.23-.439-5.531-.409-10.756-.794-16.069-.824-9.672-.062-19.518.118-29.038.29q-6.017.107-12.033.2h-.022a1.4,1.4,0,0,1-1.4-1.381,1.4,1.4,0,0,1,1.383-1.423q6.012-.084,12.023-.2c9.537-.176,19.4-.357,29.105-.29,5.41.034,10.678.422,16.257.834,2.482.183,4.984.365,7.509.516a1.405,1.405,0,0,1,1.318,1.4v15.039a1.4,1.4,0,0,1-.424,1A1.4,1.4,0,0,1,198.786-41.155Z" transform="translate(-132.592 60.356)" fill="#529ae4" stroke="#529ae4" stroke-width="1"/>
    </g>
    <g id="Group_492" data-name="Group 492" transform="translate(172.113 -52.352)">
      <path id="Path_1245" data-name="Path 1245" d="M155.066-42.706a1.4,1.4,0,0,1-1.4-1.4V-58.382a1.4,1.4,0,0,1,1.4-1.4,1.4,1.4,0,0,1,1.4,1.4v14.274A1.4,1.4,0,0,1,155.066-42.706Z" transform="translate(-153.664 59.784)" fill="#529ae4" stroke="#529ae4" stroke-width="1"/>
    </g>
    <g id="Group_493" data-name="Group 493" transform="translate(144.142 -22.664)">
      <path id="Path_1246" data-name="Path 1246" d="M140.1-27.4a1.4,1.4,0,0,1-1.4-1.4V-42.5a1.4,1.4,0,0,1,1.4-1.4,1.4,1.4,0,0,1,1.4,1.4v13.7A1.4,1.4,0,0,1,140.1-27.4Z" transform="translate(-138.701 43.902)" fill="#529ae4" stroke="#529ae4" stroke-width="1"/>
    </g>
    <g id="Group_494" data-name="Group 494" transform="translate(170.965 -22.671)">
      <path id="Path_1247" data-name="Path 1247" d="M155.027-27.968a1.4,1.4,0,0,1-1.4-1.34l-.576-13.13a1.4,1.4,0,0,1,1.342-1.458,1.342,1.342,0,0,1,1.46,1.34l.576,13.124a1.4,1.4,0,0,1-1.338,1.462C155.07-27.968,155.05-27.968,155.027-27.968Z" transform="translate(-153.05 43.906)" fill="#529ae4" stroke="#529ae4" stroke-width="1"/>
    </g>
    <g id="Group_495" data-name="Group 495" transform="translate(144.711 -52.353)">
      <path id="Path_1248" data-name="Path 1248" d="M140.408-43.849c-.021,0-.039,0-.06,0a1.406,1.406,0,0,1-1.342-1.46l.572-13.126a1.36,1.36,0,0,1,1.46-1.342,1.407,1.407,0,0,1,1.342,1.46l-.572,13.128A1.4,1.4,0,0,1,140.408-43.849Z" transform="translate(-139.005 59.785)" fill="#529ae4" stroke="#529ae4" stroke-width="1"/>
    </g>
    <g id="Group_496" data-name="Group 496" transform="translate(155.558 -67.193)">
      <path id="Path_1249" data-name="Path 1249" d="M146.21-52.359a1.4,1.4,0,0,1-1.4-1.4v-12.56a1.4,1.4,0,0,1,1.4-1.4,1.4,1.4,0,0,1,1.4,1.4v12.56A1.4,1.4,0,0,1,146.21-52.359Z" transform="translate(-144.808 67.723)" fill="#529ae4" stroke="#529ae4" stroke-width="1"/>
    </g>
    <g id="Group_497" data-name="Group 497" transform="translate(179.534 -36.364)">
      <path id="Path_1250" data-name="Path 1250" d="M159.036-37.013a1.4,1.4,0,0,1-1.4-1.4V-49.829a1.4,1.4,0,0,1,1.4-1.4,1.4,1.4,0,0,1,1.4,1.4v11.414A1.4,1.4,0,0,1,159.036-37.013Z" transform="translate(-157.634 51.231)" fill="#529ae4" stroke="#529ae4" stroke-width="1"/>
    </g>
    <g id="Group_498" data-name="Group 498" transform="translate(155.56 -36.365)">
      <path id="Path_1251" data-name="Path 1251" d="M146.211-37.012c-.026,0-.047,0-.071,0a1.4,1.4,0,0,1-1.329-1.469l.57-11.414a1.411,1.411,0,0,1,1.471-1.331,1.4,1.4,0,0,1,1.329,1.469l-.57,11.414A1.4,1.4,0,0,1,146.211-37.012Z" transform="translate(-144.809 51.232)" fill="#529ae4" stroke="#529ae4" stroke-width="1"/>
    </g>
  </g>
</svg>
