<svg xmlns="http://www.w3.org/2000/svg" width="20" height="20" viewBox="0 0 20 20">
  <g id="_6619592_goal_keyword_seo_target_icon" data-name="6619592_goal_keyword_seo_target_icon" transform="translate(-1 -1)">
    <path id="Path_8472" data-name="Path 8472" d="M14.239,11a3.239,3.239,0,1,0,3.239,3.239A3.208,3.208,0,0,0,14.239,11Z" transform="translate(-3.239 -3.239)" fill="#529ae4"/>
    <path id="Path_8473" data-name="Path 8473" d="M20.333,10.333h-1.4a7.869,7.869,0,0,0-7.267-7.267v-1.4a.667.667,0,1,0-1.333,0v1.4a7.869,7.869,0,0,0-7.267,7.267h-1.4a.667.667,0,1,0,0,1.333h1.4a7.869,7.869,0,0,0,7.267,7.267v1.4a.667.667,0,1,0,1.333,0v-1.4a7.925,7.925,0,0,0,7.267-7.267h1.4a.667.667,0,1,0,0-1.333ZM11.667,17.6V16.333a.667.667,0,0,0-1.333,0V17.6A6.608,6.608,0,0,1,4.4,11.667H5.667a.667.667,0,1,0,0-1.333H4.4A6.608,6.608,0,0,1,10.333,4.4V5.667a.667.667,0,1,0,1.333,0V4.4A6.608,6.608,0,0,1,17.6,10.333H16.333a.667.667,0,0,0,0,1.333H17.6A6.549,6.549,0,0,1,11.667,17.6Z" transform="translate(0)" fill="#032f55"/>
  </g>
</svg>
