<svg xmlns="http://www.w3.org/2000/svg" width="20.773" height="20.773" viewBox="0 0 20.773 20.773">
  <g id="_6646376_dart_essentials_goal_mission_success_icon_1_" data-name="6646376_dart_essentials_goal_mission_success_icon (1)" transform="translate(-1.25 -0.973)">
    <path id="Path_1206" data-name="Path 1206" d="M26.516,4.331a.633.633,0,0,0-.652-.435H23.691V1.723a.633.633,0,0,0-.435-.652.661.661,0,0,0-.8.145l-2.9,2.9a.658.658,0,0,0-.217.507V7.228l-4.128,4.128a.7.7,0,0,0,0,1.014.7.7,0,0,0,1.014,0L20.36,8.242h2.607a.658.658,0,0,0,.507-.217l2.9-2.9A.661.661,0,0,0,26.516,4.331Z" transform="translate(-4.591 0)" fill="#529ae4"/>
    <path id="Path_1207" data-name="Path 1207" d="M16.142,16.142a2.1,2.1,0,0,1-3.042,0,2.1,2.1,0,0,1,0-3.042l2.028-2.028A1.233,1.233,0,0,0,14.621,11a3.621,3.621,0,1,0,3.621,3.621,1.233,1.233,0,0,0-.072-.507Z" transform="translate(-2.958 -3.288)" fill="#183a64"/>
    <path id="Path_1208" data-name="Path 1208" d="M19.965,8.952a1.875,1.875,0,0,1-1.445.619H16.592l-.482.482a4.038,4.038,0,0,1,.275,1.583,4.818,4.818,0,1,1-4.818-4.818,5.863,5.863,0,0,1,1.583.275l.551-.413V4.753a1.875,1.875,0,0,1,.619-1.445l.688-.688A9.442,9.442,0,0,0,11.636,2a9.636,9.636,0,1,0,9.636,9.636,9.442,9.442,0,0,0-.619-3.373Z" transform="translate(0 -0.277)" fill="none" stroke="#032f55" stroke-width="1.5"/>
  </g>
</svg>
