<svg xmlns="http://www.w3.org/2000/svg" width="50" height="50" viewBox="0 0 50 50">
  <g id="_843773_whatsapp_icon_1_" data-name="843773_whatsapp_icon (1)" transform="translate(-4.582 -4.374)">
    <path id="Path_1211" data-name="Path 1211" d="M30.129,16.173A12.669,12.669,0,0,0,19.4,35.574l.3.479-1.279,4.673,4.793-1.257.462.274a12.645,12.645,0,0,0,6.445,1.765h.005a12.667,12.667,0,0,0,.005-25.334Zm7.448,18.106a3.92,3.92,0,0,1-2.569,1.81,5.216,5.216,0,0,1-2.4-.151,21.889,21.889,0,0,1-2.17-.8c-3.819-1.649-6.313-5.494-6.5-5.748a7.4,7.4,0,0,1-1.554-3.938,4.27,4.27,0,0,1,1.332-3.176A1.4,1.4,0,0,1,24.73,21.8c.254,0,.508,0,.73.013s.548-.089.857.653c.317.762,1.078,2.636,1.174,2.827a.7.7,0,0,1,.032.667,2.6,2.6,0,0,1-.381.635c-.19.222-.4.5-.571.667-.191.19-.389.4-.167.777a11.472,11.472,0,0,0,2.118,2.637,10.4,10.4,0,0,0,3.061,1.889c.381.191.6.159.825-.1s.952-1.112,1.205-1.493.508-.317.856-.19,2.221,1.048,2.6,1.238.634.286.73.445A3.183,3.183,0,0,1,37.577,34.279Z" transform="translate(-0.002 -0.001)" fill="#032f55"/>
    <path id="Path_1212" data-name="Path 1212" d="M29.582,4.374a25,25,0,1,0,25,25A25,25,0,0,0,29.582,4.374Zm.549,39.47h-.006a14.994,14.994,0,0,1-7.171-1.827L15,44.1l2.129-7.776a15.007,15.007,0,1,1,13,7.516Z" fill="#032f55"/>
  </g>
</svg>
