<svg xmlns="http://www.w3.org/2000/svg" width="88.066" height="130.333" viewBox="0 0 88.066 130.333">
  <g id="Group_1543" data-name="Group 1543" transform="translate(0 0)">
    <g id="Group_1525" data-name="Group 1525" transform="translate(0 42.266)">
      <circle id="Ellipse_18" data-name="Ellipse 18" cx="44.033" cy="44.033" r="44.033" fill="#2d80b1" opacity="0.3"/>
      <circle id="Ellipse_19" data-name="Ellipse 19" cx="29.829" cy="29.829" r="29.829" transform="translate(14.204 14.204)" fill="#226dbb" opacity="0.5"/>
    </g>
    <g id="freepik--Location--inject-62" transform="translate(20.287 0)">
      <path id="Path_8292" data-name="Path 8292" d="M12.67.063,15.884,0A11.479,11.479,0,0,0,10.9,1.252,13.134,13.134,0,0,0,6.864,4.468,15.266,15.266,0,0,0,4.152,9.161a16.835,16.835,0,0,0,0,11.385,14.9,14.9,0,0,0,2.711,4.643A12.77,12.77,0,0,0,10.9,28.328a11.323,11.323,0,0,0,4.981,1.156H12.67a11.259,11.259,0,0,1-4.958-1.152A12.717,12.717,0,0,1,3.688,25.2a14.865,14.865,0,0,1-2.7-4.633A16.847,16.847,0,0,1,.988,9.2a15.23,15.23,0,0,1,2.7-4.683A13.075,13.075,0,0,1,7.712,1.311,11.417,11.417,0,0,1,12.67.063Z" transform="translate(10.463 12.998)" fill="#529ae4"/>
      <g id="Group_555" data-name="Group 555" transform="translate(10.463 12.998)" opacity="0.1">
        <path id="Path_8293" data-name="Path 8293" d="M12.67.063,15.884,0A11.479,11.479,0,0,0,10.9,1.252,13.134,13.134,0,0,0,6.864,4.468,15.266,15.266,0,0,0,4.152,9.161a16.835,16.835,0,0,0,0,11.385,14.9,14.9,0,0,0,2.711,4.643A12.77,12.77,0,0,0,10.9,28.328a11.323,11.323,0,0,0,4.981,1.156H12.67a11.259,11.259,0,0,1-4.958-1.152A12.717,12.717,0,0,1,3.688,25.2a14.865,14.865,0,0,1-2.7-4.633A16.847,16.847,0,0,1,.988,9.2a15.23,15.23,0,0,1,2.7-4.683A13.075,13.075,0,0,1,7.712,1.311,11.417,11.417,0,0,1,12.67.063Z" fill="#529ae4"/>
      </g>
      <path id="Path_8294" data-name="Path 8294" d="M3.214,84.307,0,84.218c3.25-4.2,6.462-8.528,9.428-12.985A113.386,113.386,0,0,0,17.4,57.414a69.037,69.037,0,0,0,5.2-14.653,50.213,50.213,0,0,0,1.1-15.43,38.711,38.711,0,0,0-2.215-9.975,30.744,30.744,0,0,0-4.775-8.6A21.865,21.865,0,0,0,9.5,2.806,19.722,19.722,0,0,0,0,.755L3.214.666a19.845,19.845,0,0,1,9.544,2.055A21.941,21.941,0,0,1,20,8.679,30.778,30.778,0,0,1,24.794,17.3a38.715,38.715,0,0,1,2.222,10,50.152,50.152,0,0,1-1.1,15.464A68.971,68.971,0,0,1,20.7,57.447,113.349,113.349,0,0,1,12.69,71.3C9.709,75.762,6.481,80.1,3.214,84.307Z" transform="translate(23.133 0)" fill="#529ae4"/>
      <g id="Group_556" data-name="Group 556" transform="translate(23.133 0)" opacity="0.1">
        <path id="Path_8295" data-name="Path 8295" d="M3.214,84.307,0,84.218c3.25-4.2,6.462-8.528,9.428-12.985A113.386,113.386,0,0,0,17.4,57.414a69.037,69.037,0,0,0,5.2-14.653,50.213,50.213,0,0,0,1.1-15.43,38.711,38.711,0,0,0-2.215-9.975,30.744,30.744,0,0,0-4.775-8.6A21.865,21.865,0,0,0,9.5,2.806,19.722,19.722,0,0,0,0,.755L3.214.666a19.845,19.845,0,0,1,9.544,2.055A21.941,21.941,0,0,1,20,8.679,30.778,30.778,0,0,1,24.794,17.3a38.715,38.715,0,0,1,2.222,10,50.152,50.152,0,0,1-1.1,15.464A68.971,68.971,0,0,1,20.7,57.447,113.349,113.349,0,0,1,12.69,71.3C9.709,75.762,6.481,80.1,3.214,84.307Z" fill="#529ae4"/>
      </g>
      <path id="Path_8296" data-name="Path 8296" d="M46.834,27.235a50.2,50.2,0,0,1-1.1,15.43,69.026,69.026,0,0,1-5.2,14.654,113.4,113.4,0,0,1-7.972,13.82C29.6,75.6,26.383,79.923,23.133,84.126c-3.232-4.365-6.4-8.812-9.3-13.343a116.386,116.386,0,0,1-7.691-13.8A69.176,69.176,0,0,1,1.207,42.657,50.13,50.13,0,0,1,.17,27.7a39.209,39.209,0,0,1,2.087-9.739A31.735,31.735,0,0,1,6.8,9.392a22.782,22.782,0,0,1,6.962-6.183A20.08,20.08,0,0,1,23.133.663a19.708,19.708,0,0,1,9.5,2.051A21.881,21.881,0,0,1,39.84,8.659a30.742,30.742,0,0,1,4.778,8.6A38.636,38.636,0,0,1,46.834,27.235Zm-23.7,15.151a11.4,11.4,0,0,0,5-1.16,13.009,13.009,0,0,0,4.1-3.175,15.183,15.183,0,0,0,2.778-4.722,16.686,16.686,0,0,0,1.021-5.784,16.516,16.516,0,0,0-1.02-5.763,14.784,14.784,0,0,0-2.777-4.665,12.642,12.642,0,0,0-4.1-3.092,11.276,11.276,0,0,0-5-1.061,11.432,11.432,0,0,0-4.966,1.249,13.056,13.056,0,0,0-4.023,3.209,15.224,15.224,0,0,0-2.7,4.683,16.715,16.715,0,0,0-.985,5.69,16.532,16.532,0,0,0,.987,5.671,14.873,14.873,0,0,0,2.7,4.633,12.72,12.72,0,0,0,4.024,3.132,11.255,11.255,0,0,0,4.959,1.153" transform="translate(0 0.096)" fill="#529ae4"/>
    </g>
  </g>
</svg>
