<svg xmlns="http://www.w3.org/2000/svg" width="21.498" height="21.498" viewBox="0 0 21.498 21.498">
  <g id="Group_1616" data-name="Group 1616" transform="translate(-1056.25 -184.25)">
    <path id="Path_1211" data-name="Path 1211" d="M17.173,7.173a10,10,0,1,0,10,10A10.01,10.01,0,0,0,17.173,7.173Zm0,14.455c-4.672,0-7.191-4.36-7.191-4.36s2.519-4.361,7.191-4.361,7.192,4.361,7.192,4.361S21.845,21.628,17.173,21.628Z" transform="translate(1049.826 177.827)" fill="none" stroke="#032f55" stroke-width="1.5" fill-rule="evenodd"/>
    <path id="Path_1212" data-name="Path 1212" d="M26.668,23a3.9,3.9,0,1,0,3.9,3.9A3.9,3.9,0,0,0,26.668,23Zm0,6.532A2.632,2.632,0,1,1,29.3,26.905,2.635,2.635,0,0,1,26.668,29.537Z" transform="translate(1040.331 168.187)" fill="#529ae4" fill-rule="evenodd"/>
    <path id="Path_1213" data-name="Path 1213" d="M30.375,29.8a.938.938,0,0,1-.151-1.865,1.877,1.877,0,0,0-.819-.193A1.921,1.921,0,1,0,31.247,29.2.937.937,0,0,1,30.375,29.8Z" transform="translate(1037.595 165.453)" fill="#529ae4" fill-rule="evenodd"/>
  </g>
</svg>
