<svg xmlns="http://www.w3.org/2000/svg" width="651.643" height="566.836" viewBox="0 0 651.643 566.836">
  <g id="Group_1563" data-name="Group 1563" transform="translate(-133.825 -964.761)">
    <path id="Path_8324" data-name="Path 8324" d="M14.262-.01a15.614,15.614,0,0,1,15.1,14.864l21.527,748.67A13.605,13.605,0,0,1,36.62,777.557a15.614,15.614,0,0,1-15.1-14.864L-.01,14.023A13.605,13.605,0,0,1,14.262-.01Z" transform="translate(754.824 989.395) rotate(53)" fill="#e1ebf5"/>
    <path id="Path_8325" data-name="Path 8325" d="M14.9-.02A15.066,15.066,0,0,1,29.91,14.962l2.033,628.145a14.833,14.833,0,0,1-14.917,14.885A15.066,15.066,0,0,1,2.013,643.01L-.02,14.865A14.833,14.833,0,0,1,14.9-.02Z" transform="matrix(0.588, 0.809, -0.809, 0.588, 686.348, 964.79)" fill="#e1ebf5"/>
    <path id="Path_8326" data-name="Path 8326" d="M15.016-.021A14.971,14.971,0,0,1,30.011,14.986L29.127,647.1A15.016,15.016,0,1,1-.9,647.144L-.021,15.028A15.073,15.073,0,0,1,15.016-.021Z" transform="translate(759.562 1109.137) rotate(53)" fill="#e1ebf5"/>
  </g>
</svg>
