<svg xmlns="http://www.w3.org/2000/svg" width="13.958" height="13.958" viewBox="0 0 13.958 13.958">
  <g id="Icon_feather-instagram" data-name="Icon feather-instagram" transform="translate(-2 -2)">
    <path id="Path_1203" data-name="Path 1203" d="M5.99,3h5.979a2.99,2.99,0,0,1,2.99,2.99v5.979a2.99,2.99,0,0,1-2.99,2.99H5.99A2.99,2.99,0,0,1,3,11.969V5.99A2.99,2.99,0,0,1,5.99,3Z" transform="translate(0 0)" fill="none" stroke="#032f55" stroke-linecap="round" stroke-linejoin="round" stroke-width="2"/>
    <path id="Path_1204" data-name="Path 1204" d="M16.822,13.976a2.392,2.392,0,1,1-2.015-2.015A2.392,2.392,0,0,1,16.822,13.976Z" transform="translate(-5.451 -5.373)" fill="none" stroke="#032f55" stroke-linecap="round" stroke-linejoin="round" stroke-width="2"/>
    <path id="Path_1205" data-name="Path 1205" d="M26.25,9.75h0" transform="translate(-13.982 -4.059)" fill="none" stroke="#032f55" stroke-linecap="round" stroke-linejoin="round" stroke-width="2"/>
  </g>
</svg>
