<svg xmlns="http://www.w3.org/2000/svg" width="13.67" height="11.124" viewBox="0 0 13.67 11.124">
  <path id="Icon_ionic-logo-twitter" data-name="Icon ionic-logo-twitter" d="M15.083,5.818a5.67,5.67,0,0,1-1.611.443,2.814,2.814,0,0,0,1.234-1.553,5.573,5.573,0,0,1-1.782.681A2.8,2.8,0,0,0,8.073,7.307a2.746,2.746,0,0,0,.072.64A7.948,7.948,0,0,1,2.363,5.013a2.81,2.81,0,0,0,.872,3.748,2.739,2.739,0,0,1-1.275-.351v.035A2.807,2.807,0,0,0,4.212,11.2a2.823,2.823,0,0,1-.739.1,2.646,2.646,0,0,1-.527-.052,2.809,2.809,0,0,0,2.622,1.95,5.623,5.623,0,0,1-3.485,1.2,5.685,5.685,0,0,1-.669-.041,7.839,7.839,0,0,0,4.293,1.269,7.932,7.932,0,0,0,7.986-7.989c0-.122,0-.243-.009-.362A5.709,5.709,0,0,0,15.083,5.818Z" transform="translate(-1.413 -4.5)" fill="#fff"/>
</svg>
