<svg xmlns="http://www.w3.org/2000/svg" width="12.286" height="12.286" viewBox="0 0 12.286 12.286">
  <path id="Icon_material-language" data-name="Icon material-language" d="M9.137,3a6.143,6.143,0,1,0,6.149,6.143A6.14,6.14,0,0,0,9.137,3Zm4.257,3.686H11.581A9.613,9.613,0,0,0,10.734,4.5,4.932,4.932,0,0,1,13.394,6.686ZM9.143,4.253a8.653,8.653,0,0,1,1.173,2.433H7.97A8.653,8.653,0,0,1,9.143,4.253ZM4.388,10.371a4.805,4.805,0,0,1,0-2.457H6.465a10.145,10.145,0,0,0-.086,1.229,10.145,10.145,0,0,0,.086,1.229Zm.5,1.229H6.7a9.613,9.613,0,0,0,.848,2.187A4.906,4.906,0,0,1,4.892,11.6ZM6.7,6.686H4.892A4.906,4.906,0,0,1,7.552,4.5,9.613,9.613,0,0,0,6.7,6.686Zm2.439,7.347A8.653,8.653,0,0,1,7.97,11.6h2.347A8.653,8.653,0,0,1,9.143,14.032Zm1.437-3.661H7.705a9.038,9.038,0,0,1-.1-1.229,8.959,8.959,0,0,1,.1-1.229H10.58a8.959,8.959,0,0,1,.1,1.229A9.038,9.038,0,0,1,10.58,10.371Zm.154,3.415a9.613,9.613,0,0,0,.848-2.187h1.812a4.932,4.932,0,0,1-2.66,2.187Zm1.087-3.415a10.145,10.145,0,0,0,.086-1.229,10.145,10.145,0,0,0-.086-1.229H13.9a4.805,4.805,0,0,1,0,2.457Z" transform="translate(-3 -3)" fill="#707070"/>
</svg>
