<svg xmlns="http://www.w3.org/2000/svg" width="23.032" height="23.308" viewBox="0 0 23.032 23.308">
  <g id="Layer_1_1_" transform="translate(-0.5 -0.617)">
    <path id="Path_1230" data-name="Path 1230" d="M1,18.559H14.311v4.483l2.754-1.652,2.754,1.652V18.559h3.213V1.117H1Zm18.023-3.115c-.041.042-.085.08-.129.119-.025.022-.048.045-.073.067s-.059.044-.088.067a2.735,2.735,0,0,1-1.362.549l-.025,0c-.092.009-.186.014-.28.014s-.188-.005-.28-.014l-.025,0A2.737,2.737,0,0,1,15.4,15.7c-.029-.022-.06-.043-.088-.067s-.049-.045-.073-.067c-.044-.039-.087-.078-.129-.119a2.753,2.753,0,1,1,3.917,0ZM18.9,21.421l-1.836-1.1-1.836,1.1v-4.73c.016.009.033.015.049.024a3.71,3.71,0,0,0,.376.185l.017.006a3.652,3.652,0,0,0,2.787,0l.017-.006a3.615,3.615,0,0,0,.376-.185c.016-.009.034-.015.049-.024v4.73ZM1.918,2.035h20.2V17.641h-2.3v-1.71a3.672,3.672,0,1,0-5.508,0v1.71H1.918Z" transform="translate(0 0)" fill="#2076a5" stroke="#2076a5" stroke-width="1"/>
    <rect id="Rectangle_2685" data-name="Rectangle 2685" width="12.073" height="0.671" transform="translate(5.98 4.109)" fill="#2076a5" stroke="#2076a5" stroke-width="1"/>
    <rect id="Rectangle_2686" data-name="Rectangle 2686" width="6.707" height="0.671" transform="translate(8.663 6.792)" fill="#2076a5" stroke="#2076a5" stroke-width="1"/>
    <rect id="Rectangle_2687" data-name="Rectangle 2687" width="4.695" height="0.671" transform="translate(3.968 14.841)" fill="#2076a5" stroke="#2076a5" stroke-width="1"/>
  </g>
</svg>
